<svg width="170" height="170" xmlns="http://www.w3.org/2000/svg"><defs><clipPath id="clip-path"><rect id="svg_1" x="-600" y="-218" fill="none" height="24" width="24"/></clipPath></defs><g><title>background</title><rect fill="none" id="canvas_background" height="402" width="582" y="-1" x="-1"/></g><g><title>Layer 1</title><g id="_7S_Lead_1_21"><rect stroke="null" x="0" y="63" fill="#d8dde7" height="82" width="169" id="Rectangle_46"/><rect x="0" y="38" fill="#d8dde7" height="21" width="170" id="Rectangle_44"/><rect x="0" y="0" fill="#8c929f" height="34" width="170" id="Rectangle_3"/><path fill="#fff" d="m154,20l-5,0l0,-5l5,0l0,-3l6,5.5l-6,5.5l0,-3z" id="Path_7"/><path fill="#fff" d="m16,20l5,0l0,-5l-5,0l0,-3l-6,5.5l6,5.5l0,-3z" id="Path_8"/><rect x="0" y="149" fill="#d8dde7" height="21" width="170" id="Rectangle_79"/><g clip-path="url(#clip-path)" id="icon-boldest_2"><rect x="5" y="141" fill="#0a9ad7" height="24" width="24" id="Rectangle_1"/><g id="Layer_2"><g id="Layer_1"><path fill="#fff" d="m27.962,154.882a1.79,1.79 0 0 0 -0.188,-0.417a3.887,3.887 0 0 0 -0.438,-0.581a9.463,9.463 0 0 0 -0.855,-0.81c-0.528,-0.452 -0.97,-0.775 -1.265,-0.991l-0.525,-0.4l0,0l-0.407,-0.271l-0.071,-0.041a13.479,13.479 0 0 0 -1.328,-0.775a5.02,5.02 0 0 0 -0.546,-0.219a2.2,2.2 0 0 0 -0.313,-0.083a1.877,1.877 0 0 0 -0.2,-0.035a1.227,1.227 0 0 0 -0.226,0a1.884,1.884 0 0 0 -0.786,0.275a5.065,5.065 0 0 0 -0.612,0.438c-0.209,0.17 -0.414,0.348 -0.643,0.56l-0.129,-0.122c-0.348,-0.323 -0.671,-0.654 -1.043,-0.98a7.506,7.506 0 0 0 -0.914,-0.765a2.983,2.983 0 0 0 -0.657,-0.32a2.058,2.058 0 0 0 -0.212,-0.056l-0.344,-0.039l-0.1,0a1.391,1.391 0 0 0 -0.219,0.024a2.378,2.378 0 0 0 -0.728,0.276a4.485,4.485 0 0 0 -0.553,0.369c-0.282,0.219 -0.57,0.473 -0.907,0.789l-1.662,1.6a22.308,22.308 0 0 1 -1.69,1.505l-0.16,0.125l-0.98,0a9.428,9.428 0 0 0 -1.148,0.033a4.252,4.252 0 0 0 -1.22,0.289a1.85,1.85 0 0 0 -0.64,0.435a0.984,0.984 0 0 0 -0.247,0.525a0.838,0.838 0 0 0 0.045,0.372a0.935,0.935 0 0 0 0.181,0.289a1.126,1.126 0 0 0 0.424,0.278a1.843,1.843 0 0 0 0.393,0.1a2.475,2.475 0 0 0 0.309,0.021l0.038,0l0.348,-0.017a4.686,4.686 0 0 0 1.248,-0.3a8.827,8.827 0 0 0 2,-1.112c1.168,0 2.4,-0.017 3.563,-0.115a13.228,13.228 0 0 0 1.958,-0.313a7.012,7.012 0 0 0 1.783,-0.7a6.338,6.338 0 0 0 0.758,-0.515c0.094,-0.073 0.184,-0.156 0.275,-0.233a12.838,12.838 0 0 0 1.533,1.137a16.124,16.124 0 0 0 3.5,1.606a9.435,9.435 0 0 0 1.7,0.386a4.123,4.123 0 0 0 0.866,0.021a1.867,1.867 0 0 0 0.48,-0.115a0.921,0.921 0 0 0 0.5,-0.462a0.935,0.935 0 0 0 0.056,-0.671l-0.002,0.005zm-1.284,-0.405a2.666,2.666 0 0 1 0.33,0.438a0.751,0.751 0 0 1 0.087,0.195l-0.017,0a0.963,0.963 0 0 1 -0.233,0.042a3.059,3.059 0 0 1 -0.661,-0.038a8.451,8.451 0 0 1 -1.509,-0.4a14.33,14.33 0 0 1 -3.2,-1.63a11.674,11.674 0 0 1 -1.262,-0.969a6.206,6.206 0 0 1 0.553,-0.476a3.824,3.824 0 0 1 0.5,-0.348a0.973,0.973 0 0 1 0.4,-0.153a0.987,0.987 0 0 1 0.379,0.083c0.132,0.049 0.275,0.111 0.442,0.191a13.427,13.427 0 0 1 1.248,0.751l0.052,0.035c0.188,0.122 0.32,0.212 0.389,0.261l0.511,0.348c0.282,0.205 0.7,0.515 1.213,0.939a7.9,7.9 0 0 1 0.776,0.74l0.002,-0.009zm-14.525,-0.557c0.3,-0.247 0.567,-0.487 0.789,-0.7c0.369,-0.32 0.734,-0.65 1.1,-0.977c0.209,-0.188 0.417,-0.379 0.622,-0.56l0.09,-0.08c0.25,-0.222 0.49,-0.435 0.734,-0.619a1.888,1.888 0 0 1 0.7,-0.386l0.153,0l0.1,0.028a1.575,1.575 0 0 1 0.348,0.167a6.859,6.859 0 0 1 0.789,0.6q0.348,0.306 0.7,0.626l0.386,0.348c-0.045,0.038 -0.094,0.08 -0.146,0.118a4.888,4.888 0 0 1 -0.681,0.438a7.886,7.886 0 0 1 -3.379,0.89c-0.767,0.082 -1.563,0.106 -2.307,0.116l0.002,-0.009zm9.533,1.865l-14.583,0a1.554,1.554 0 0 1 0.174,-0.1a3.153,3.153 0 0 1 0.939,-0.24c0.17,-0.017 0.348,-0.031 0.511,-0.038l0.059,0l-0.216,0.1l0,0a3.619,3.619 0 0 1 -0.957,-0.277l-0.253,0.02a1.043,1.043 0 0 1 -0.2,-0.014l14.526,0.549z" id="Path_12"/></g></g></g></g></g></svg>